<svg width="533" height="679" viewBox="0 0 533 679" fill="none" xmlns="http://www.w3.org/2000/svg">
<g clip-path="url(#clip0)">
<path d="M249.147 678.977C290.422 676.684 332.545 662.47 372.145 640.666C460.747 591.832 514.747 517.802 530.753 417.612C534.078 396.794 533.046 374.991 531.83 353.783C530.684 334.502 512.156 324.987 493.904 331.842C463.59 343.306 433.781 356.672 402.596 364.674C360.244 375.518 318.534 363.39 277.329 353.21C273.614 352.293 270.45 348.625 267.377 345.874C257.494 336.29 248.414 325.813 237.935 316.986C231.79 311.782 223.879 306.783 216.197 305.729C207.025 304.468 200.925 300.364 194.872 294.265C101.485 200.709 8.02167 107.206 -85.518 13.7562C-104.091 -4.79159 -117.804 -4.58525 -136.377 13.7562C-139.908 17.264 -143.44 20.7717 -146.925 24.3025C-161.715 39.3883 -161.761 55.4371 -146.741 70.477C-79.2504 138.065 -11.7132 205.608 55.8696 273.104C83.3858 300.616 111.2 327.991 138.418 355.847C142.478 360.193 145.208 365.611 146.283 371.46C148.416 383.863 153.85 394.387 163.71 401.402C179.761 412.866 182.054 428.204 180.472 446.568C175.583 501.801 178.555 557.449 189.3 611.847C191.341 622.325 193.886 632.734 196.798 643.005C205.42 673.337 213.055 678.84 249.147 678.977ZM492.735 450.168C485.993 466.216 480.971 480.11 474.069 493.109C472.482 495.436 470.381 497.366 467.927 498.75C465.474 500.133 462.734 500.933 459.922 501.088C448.089 500.943 436.349 498.979 425.113 495.265C409.062 489.373 393.928 481.21 378.749 473.324C369.141 468.326 360.015 468.578 355.108 475.616C349.857 483.045 352.104 492.926 360.657 499.621C362.147 500.79 363.799 501.913 365.404 502.83C387.88 517.481 413.28 527.058 439.835 530.893C443.63 531.779 447.36 532.92 451.002 534.309C438.803 547.217 427.911 558.382 417.455 569.96C412.273 575.738 407.435 576.311 400.418 572.918C373.619 559.69 350.115 540.639 331.628 517.16C323.419 507.026 315.576 505.032 307.138 510.992C299.204 516.61 298.31 526.376 306.336 536.212C314.64 546.688 323.847 556.415 333.852 565.283C347.954 577.32 363.363 587.843 379.872 600.246C366.32 607.675 353.021 614.782 339.928 622.233C331.054 627.277 324.84 624.847 318.053 617.648C297.282 596.093 282.426 569.544 274.921 540.568C271.367 526.812 264.786 522.066 254.467 524.817C244.86 527.385 241.374 535.753 244.837 549.143C251.466 575.92 263.81 600.948 281.021 622.508C285.01 627.438 288.771 632.55 294.985 640.666C277.902 642.959 263.823 645.779 249.629 646.742C230.276 648.049 230.253 647.109 225.185 628.125C209.983 571.313 207.827 513.239 212.092 455.303C214.385 423.206 210.969 396.404 183.384 376.55C178.11 372.767 178.041 367.585 182.788 362.794C189.667 355.755 196.89 348.808 203.837 341.724C208.882 336.588 213.56 336.749 218.582 341.884C228.465 351.972 238.187 362.289 248.712 371.689C254.261 376.641 260.934 382.029 267.859 383.405C298.471 389.572 329.197 396.221 360.221 399.201C406.082 403.603 448.25 387.944 489.227 369.144C492.827 367.494 496.564 366.095 501.792 363.917C501.792 376.596 501.219 387.257 501.952 397.803C502.87 410.734 496.793 416.144 484.732 418.574C460.93 423.435 437.335 425.774 413.282 420.088C400.578 417.061 392.438 421.326 390.191 430.634C387.944 439.942 393.126 447.944 405.875 450.145C420.86 452.805 436.036 454.247 451.254 454.455C463.843 454.409 476.638 451.864 492.735 450.168ZM-113.63 35.1927L174.946 323.474C172.148 326.959 168.456 331.567 165.613 335.075L-124.178 45.7619L-113.63 35.1927Z" fill="#EDFCFF"/>
<path d="M29.6601 548.386C38.3048 547.652 43.8314 542.654 45.0008 534.24C46.3766 524.267 51.6732 519.819 61.2809 518.467C69.5128 517.32 73.8006 511.726 74.2821 503.449C74.7866 494.76 70.0633 489.441 62.0378 488.157C51.5587 486.506 45.9868 481.279 44.4505 470.756C43.1206 461.998 36.9061 457.94 28.0092 458.284C19.1123 458.628 14.7558 464.291 13.8615 472.04C12.7609 481.555 8.01418 486.254 -1.18081 487.584C-9.66497 488.822 -15.604 493.453 -15.6499 502.464C-15.6957 511.474 -10.5594 517.481 -1.29558 518.787C7.96821 520.094 12.4629 525.069 13.9533 534.332C15.2374 542.723 20.4881 547.927 29.6601 548.386Z" fill="#EDFCFF"/>
<path d="M323.694 74.2141C315.737 75.177 310.188 79.2809 309.087 87.6492C307.826 97.095 303.997 102.918 293.449 103.858C284.942 104.615 279.691 109.934 279.691 119.196C279.691 128.459 284.782 133.893 293.22 135.016C303.286 136.323 307.872 141.39 309.271 151.065C310.532 159.914 316.609 164.614 325.322 164.156C333.233 163.72 339.08 159.571 339.974 150.767C340.914 140.931 345.684 135.979 355.865 134.924C364.463 134.03 369.623 128.253 369.486 119.242C369.348 110.232 364.051 104.592 355.567 103.812C345.088 102.849 341.098 97.2324 339.837 87.7636C338.507 78.8222 332.682 74.6039 323.694 74.2141Z" fill="#EDFCFF"/>
<path d="M447.47 233.143C447.357 230.676 446.752 228.258 445.693 226.028C444.633 223.798 443.139 221.802 441.299 220.156C439.458 218.51 437.308 217.247 434.974 216.442C432.64 215.637 430.169 215.305 427.705 215.466C422.732 215.802 418.092 218.085 414.791 221.819C411.49 225.552 409.795 230.437 410.071 235.412C410.183 237.884 410.793 240.308 411.865 242.537C412.938 244.767 414.45 246.757 416.312 248.387C418.173 250.017 420.345 251.253 422.697 252.022C425.049 252.791 427.533 253.076 429.998 252.86C432.468 252.795 434.898 252.224 437.138 251.181C439.377 250.138 441.379 248.645 443.017 246.796C444.656 244.947 445.897 242.781 446.663 240.432C447.429 238.083 447.704 235.602 447.47 233.143Z" fill="#EDFCFF"/>
</g>
<defs>
<clipPath id="clip0">
<rect width="691" height="679" fill="white" transform="matrix(-1 0 0 1 533 0)"/>
</clipPath>
</defs>
</svg>
