<svg width="78" height="78" viewBox="0 0 78 78" fill="none" xmlns="http://www.w3.org/2000/svg">
<g clip-path="url(#clip0)">
<path d="M67.0315 0.990431L3.65646 37.5377C-1.58416 40.5693 -1.08143 48.3236 4.52482 50.624L21.9377 57.8299V70.6877C21.9377 77.7565 30.9565 80.6662 35.1307 75.0447L41.8033 66.0412L58.8506 73.0795C59.7494 73.4451 60.694 73.6279 61.6385 73.6279C62.8877 73.6279 64.1217 73.308 65.2338 72.6834C67.1838 71.5865 68.5244 69.6365 68.8748 67.4276L77.924 8.44004C78.8533 2.33106 72.3025 -2.04121 67.0315 0.990431ZM29.2502 70.6877V60.8463L34.826 63.1467L29.2502 70.6877ZM61.6385 66.3154L38.208 56.6416L59.5666 25.8225C61.1967 23.4611 58.1193 20.7189 55.9561 22.5928L23.7354 50.6697L7.31271 43.8752L70.6877 7.3127L61.6385 66.3154Z" fill="#238FC1"/>
</g>
<defs>
<clipPath id="clip0">
<rect width="78" height="78" fill="white"/>
</clipPath>
</defs>
</svg>
