<svg width="92" height="92" viewBox="0 0 92 92" fill="none" xmlns="http://www.w3.org/2000/svg">
<path d="M88.5 12.5C88.4 12.4 88.4 12.4 88.3 12.3L77.5 2.90001C76 1.50001 74 0.800013 71.8 1.00001C69.9 1.20001 68 2.00001 66.6 3.40001C66.5 3.50001 66.4 3.60001 66.3 3.70001L55.7001 17.1C52.9001 20.1 53 24.7 55.9001 27.6C56.1001 27.8 56.3 28 56.5 28.1L61.9001 31.7C61.5 33.6 58.7001 39 48.8 48.9C39 58.7 33.5 61.5 31.7 61.9L28.1 56.5C28 56.3 27.8 56.1 27.6 55.9C24.7 53 20 53 17.1 55.7L3.80005 66.3C3.70005 66.4 3.60005 66.5 3.50005 66.6C0.500049 69.6 0.300048 74.6 3.00005 77.5L12.4 88.2C12.5 88.3 12.5 88.3 12.6 88.4C14.4 90.2 17.2 90.9 20.3 90.9C25.8 90.9 32.1001 88.7 35.4001 87.4C41.8001 84.9 54.3 78.8 66.7 66.4C75.9 57.2 83.3 46.1 87.7 35.1C89.5 30.1 93.7 17.7 88.5 12.5ZM60.9001 60.9C42.4001 79.4 21.6 84.5 18.1 82.8L9.00005 72.3L22 62L25.5 67.3C25.6 67.4 25.6 67.5 25.7 67.6C26.9 69.1 28.6 69.9 30.6 70C32.5 70.1 38.4 70.4 54.3 54.5C58.2001 50.6 70.2001 38.6 69.8 30.8C69.7001 28.8 68.8 27.1 67.4 25.9C67.3 25.8 67.2 25.7 67.1 25.7L62 22.1L72.3 9.00001L82.7 18.1C84.5 21.6 79.4001 42.4 60.9001 60.9Z" fill="#238FC1"/>
</svg>
