<svg width="563" height="631" viewBox="0 0 563 631" fill="none" xmlns="http://www.w3.org/2000/svg">
<g opacity="0.3" clip-path="url(#clip0)">
<path d="M209.798 268.452C203.452 259.619 195.932 251.418 190.964 241.864C180.034 220.909 170.639 199.052 160.16 177.984C147.31 152.094 129.176 131.049 102.393 118.543C77.7768 107.029 53.0481 104.145 29.539 120.594C6.39117 136.795 -0.970947 161.152 0.180786 187.741C2.16809 237.718 28.3193 272.485 71.1371 296.505C81.3551 302.005 90.6633 309.043 98.734 317.37C109.642 329.222 106.616 339.632 91.6429 345.04C73.102 351.8 59.7552 362.908 58.4227 383.345C57.0226 404.616 66.0559 422.079 82.9933 434.99C97.6273 446.121 115.265 448.712 132.902 450.762C144.081 452.137 155.305 453.016 166.484 454.503C176.714 455.765 180.034 460.361 177.775 471.425C172.606 494.378 168.768 517.61 166.28 541.005C164.745 557.071 171.7 572.055 182.089 584.515C209.663 617.638 262.146 607.724 280.981 565.903C289.495 547.021 291.685 527.102 289.856 506.485C289.269 499.725 291.301 492.966 292.114 486.048C299.454 487.603 307.922 487.288 313.952 491.051C333.938 503.691 352.886 517.954 372.443 531.316C400.243 550.266 430.459 559.775 464.266 552.474C481.235 548.968 496.234 539.156 506.222 525.026C516.211 510.897 520.442 493.508 518.059 476.382C515.801 459.302 512.256 442.38 509.388 425.391C508.642 420.884 508.326 416.378 507.581 412.029C504.171 391.479 510.675 377.937 530.774 367.978C561.08 352.949 569.64 329.132 558.574 302.228C551.641 285.396 537.865 277.172 521.131 272.711C496.289 266.109 494.754 263.698 498.728 238.191C499.203 235.239 499.857 232.31 500.354 229.336C509.004 178.908 468.738 144.433 420.093 161.738C405.075 167.101 391.164 175.843 377.185 183.865C361.151 193.081 350.085 191.616 340.036 175.798C333.261 165.073 328.338 153.153 322.895 141.616C310.836 115.974 291.911 105.137 266.121 109.688C257.836 110.97 250.092 114.592 243.805 120.127C237.517 125.661 232.95 132.876 230.643 140.918C224.749 160.61 220.592 180.778 218.222 201.193C215.963 219.354 216.438 237.876 215.58 256.24C215.238 259.738 214.695 263.214 213.953 266.65L209.798 268.452ZM258.397 509.099C258.776 516.607 258.723 524.13 258.239 531.632C256.545 546.571 252.006 560.36 238.276 568.99C224.093 578.003 207.269 574.083 201.871 558.378C197.904 546.409 196.503 533.742 197.761 521.199C199.365 505.291 205.101 489.856 208.285 474.038C213.705 447.225 203.113 431.227 176.669 425.166C171.926 424.084 167.048 423.656 162.215 422.912C144.465 420.073 126.466 418.271 109.077 413.899C97.3564 411.015 90.6041 401.371 89.7007 388.843C88.7974 376.315 99.9987 375.617 107.767 372.282C129.809 362.796 139.384 343.688 133.919 320.051C128.95 298.398 113.82 285.577 96.1143 274.671C85.8615 268.384 75.1571 262.661 65.6721 255.383C38.5723 234.586 24.6835 194.861 33.6942 166.11C40.2659 145.177 56.2774 136.029 77.4379 142.067C101.692 148.962 118.472 165.388 129.786 187.132C141.733 210.093 151.737 234.09 164.09 256.803C170.746 268.941 179.112 280.065 188.931 289.835C193.819 294.935 200.201 298.356 207.161 299.607C214.12 300.858 221.298 299.875 227.662 296.798C241.212 290.895 244.78 278.502 245.728 265.253C246.88 247.677 246.857 229.989 248.37 212.436C249.712 196.405 251.883 180.453 254.874 164.645C256.997 153.514 260.881 141.684 274.612 140.265C289.133 138.732 292.34 151.644 297.647 161.31C304.67 174.086 310.316 187.921 318.966 199.48C335.429 221.449 360.654 226.632 385.383 214.712C392.79 211.129 399.43 206.037 406.498 201.778C419.213 194.117 432.288 187.808 447.848 189.386C463.408 190.963 471.832 200.156 470.77 215.478C470.228 223.297 468.512 231.048 467.179 238.822C461.556 272.756 474.767 293.103 507.829 301.462C511.878 302.272 515.84 303.464 519.663 305.022C534.658 312.075 535.923 327.419 522.441 336.838C519.053 339.091 515.508 341.345 511.962 343.463C478.945 362.998 471.312 379.515 477.003 418.068C480.368 440.6 484.862 463.133 486.623 485.868C488.046 504.097 476.574 517.188 458.914 522.1C450.167 524.52 441.018 525.135 432.025 523.906C423.032 522.678 414.385 519.633 406.611 514.957C390.035 505.471 374.498 494.115 358.667 483.412C340.352 470.974 323.053 456.734 299.951 453.647C278.18 450.763 260.204 464.913 258.691 486.634C257.991 494.047 258.42 501.573 258.397 509.031V509.099Z" fill="#C3F4FF"/>
<path d="M352.999 110.207C352.208 139.882 369.507 151.486 394.191 139.747C416.774 128.999 437.979 116.178 451.687 94.2537C464.357 73.9745 468.625 52.7036 458.237 30.081C450.061 12.2803 436.308 1.64521 416.548 0.203132C397.375 -1.19388 383.757 7.97671 373.482 23.7269C361.083 42.6993 358.87 64.398 355.641 85.8489C354.308 94.6591 353.676 103.65 352.999 110.207ZM384.006 109.801C386.264 92.3833 387.325 77.4445 390.464 62.9335C392.522 53.8667 396.227 45.2524 401.395 37.5168C407.515 28.2334 416.006 28.3009 424.407 35.7366C433.147 43.4653 435.541 57.0074 429.556 69.9411C420.749 88.8684 404.737 99.9545 384.006 109.734V109.801Z" fill="#C3F4FF"/>
<path d="M120.527 476.968C105.644 477.576 90.0847 487.986 75.8347 499.5C65.9745 507.483 57.6687 517.206 51.3316 528.184C42.8178 543.123 47.2894 561.712 59.0778 572.573C70.8662 583.434 91.959 587.309 105.351 578.77C133.128 561.059 147.717 534.516 150.517 502.159C151.94 486.679 140.897 477.126 120.527 476.968ZM114.542 509.527L119.556 514.034C111.855 525.075 104.764 536.566 96.0691 546.819C93.4721 549.86 86.3131 549.072 81.2544 549.973C81.7512 544.994 80.3512 538.031 83.1064 535.372C92.7946 525.886 103.928 518.045 114.542 509.527Z" fill="#C3F4FF"/>
<path d="M122.65 61.6939C125.585 85.8036 139.926 108.854 162.983 126.25C173.846 134.451 186.967 131.184 194.6 120.594C209.956 99.571 211.853 56.1509 198.371 34.6774C188.118 18.3639 168.742 10.2296 151.917 15.1642C132.473 20.8875 122.288 35.3309 122.65 61.6939ZM174.749 91.3242L169.849 92.4959C164.7 82.7168 159.031 73.1629 154.628 63.0458C151.872 56.7141 151.082 47.859 159.709 46.5296C164.225 45.8536 173.259 52.2753 174.072 56.6241C176.127 67.8453 174.749 79.7199 174.749 91.3242Z" fill="#C3F4FF"/>
<path d="M342.136 542.402C318.243 542.605 299.228 563.583 299.228 589.721C299.228 613.56 316.82 631.135 340.442 630.977C370.591 630.752 392.384 613.109 392.384 589.157C392.384 565.205 367.565 542.2 342.136 542.402ZM345.885 601.55C336.445 599.793 331.048 597.674 330.574 589.315C330.099 580.955 337.348 571.289 342.972 573.812C349.747 576.787 355.099 583.389 361.038 588.413L345.885 601.55Z" fill="#C3F4FF"/>
</g>
<defs>
<clipPath id="clip0">
<rect width="563" height="631" fill="white" transform="matrix(-1 0 0 1 563 0)"/>
</clipPath>
</defs>
</svg>
