<svg width="314" height="316" viewBox="0 0 314 316" fill="none" xmlns="http://www.w3.org/2000/svg">
<path d="M273.254 79.9854C279.809 93.0481 281.838 94.9464 296.204 101.43C285.124 104.808 277.57 111.806 273.335 122.842C269.067 111.918 261.562 104.743 250.144 101.381C261.482 97.9708 269.115 90.8924 273.254 79.9854Z" fill="#0880B7"/>
<path d="M223.747 49.1302C231.365 46.5723 236.357 42.0196 239.224 34.6035C242.026 41.9392 247.035 46.5401 254.54 49.098C247.196 51.7845 242.01 56.2085 239.272 63.5764C236.309 56.3855 231.477 51.5915 223.747 49.1302Z" fill="#9BD9E8"/>
<path d="M70.5562 141.438C71.2809 136.21 72.5532 131.094 74.1959 126.043C78.1255 113.961 84.6964 103.408 93.3931 94.1742C98.6595 88.5759 104.634 83.8462 111.205 79.8566C123.477 72.4243 136.796 68.3704 151.081 67.5982C156.654 67.2925 162.242 67.4373 167.815 68.29C177.172 69.7056 186.094 72.4404 194.484 76.7679C205.227 82.3019 214.503 89.718 222.089 99.1773C230.286 109.409 236.035 120.815 239.015 133.588C239.337 135.003 239.401 136.532 240.368 138.14C241.366 130.386 241.576 122.986 240.867 115.538C240.158 108.154 238.5 100.979 235.858 94.0938C230.544 80.2266 222.121 68.5152 210.751 58.879C203.664 52.8785 195.837 48.1488 187.221 44.8027C173.951 39.6387 160.165 38.0461 145.976 39.2526C137.746 39.9605 129.742 41.4405 121.851 43.8375C110.835 47.1836 100.689 52.1867 91.2028 58.5411C76.2574 85.4067 66.3205 114.621 70.5562 141.438Z" fill="#9BD9E8"/>
<path d="M269.711 144.849C269.598 143.272 269.373 141.696 269.212 140.119C268.841 140.344 268.777 140.521 268.745 140.714C264.895 166.599 253.638 188.734 234.731 206.833C213.907 226.781 188.944 237.318 160.116 238.669C142.32 239.506 125.716 235.5 110.577 226.057C105.906 223.145 101.639 219.927 97.7573 216.437C105.633 236.079 125.683 255.544 166.993 266.789C172.469 266.162 178.025 265.181 183.678 263.813C236.824 250.911 273.624 201.17 269.711 144.849Z" fill="#047FB8"/>
<path d="M97.7575 216.437C97.1938 215.037 94.3754 213.251 93.2803 212.109C91.7342 210.5 90.2525 208.827 88.8514 207.106C86.033 203.663 83.5206 199.995 81.2981 196.135C79.0434 192.209 77.1108 188.123 75.4842 183.892C74.6467 181.72 73.9059 179.533 73.2295 177.313C70.5722 168.497 69.8474 160.003 69.8796 150.865C69.8796 147.68 70.1212 144.543 70.5561 141.438C66.3043 114.621 76.2411 85.4067 91.2027 58.5411C90.0432 59.3133 88.8997 60.1016 87.7562 60.906C80.364 66.2147 73.8254 72.4404 67.9631 79.374C56.2548 93.2572 48.315 109.055 44.0633 126.702C35.0927 163.976 45.7221 205.127 73.1973 232.475C99.9961 259.148 131.514 270.827 166.993 266.789C125.684 255.544 105.649 236.079 97.7575 216.437Z" fill="#01A0C6"/>
<path d="M88.8674 184.166C84.7768 182.38 81.6041 179.838 79.3655 176.524C77.1269 173.21 75.9995 169.398 75.9995 165.038V163.671C75.9995 163.22 76.1284 162.866 76.386 162.593C76.6437 162.335 76.998 162.207 77.4651 162.207H92.5555C93.0064 162.207 93.3607 162.335 93.6345 162.593C93.8922 162.85 94.0211 163.204 94.0211 163.671V164.25C94.0211 166.068 94.9712 167.676 96.8877 169.06C98.8042 170.459 101.349 171.151 104.538 171.151C106.937 171.151 108.661 170.653 109.707 169.639C110.738 168.642 111.27 167.516 111.27 166.277C111.27 164.845 110.625 163.783 109.321 163.059C108.016 162.352 105.649 161.467 102.219 160.437L99.4001 159.665C92.9742 157.718 87.579 155.128 83.2307 151.879C78.8823 148.629 76.7081 143.932 76.7081 137.77C76.7081 133.684 77.8194 130.065 80.0258 126.928C82.2322 123.791 85.2599 121.361 89.1251 119.688C92.9903 117.999 97.3226 117.163 102.122 117.163C107.179 117.163 111.785 118.096 115.908 119.978C120.031 121.86 123.268 124.515 125.651 127.957C128.019 131.4 129.211 135.325 129.211 139.733V140.602C129.211 141.052 129.082 141.406 128.824 141.68C128.566 141.937 128.212 142.066 127.745 142.066H112.655C112.204 142.066 111.849 141.937 111.576 141.68C111.318 141.422 111.189 141.068 111.189 140.602V140.505C111.189 138.559 110.319 136.789 108.564 135.196C106.808 133.604 104.441 132.816 101.445 132.816C99.3679 132.816 97.7252 133.234 96.5334 134.086C95.3256 134.923 94.7297 136.097 94.7297 137.593C94.7297 138.768 95.1645 139.749 96.0503 140.553C96.92 141.358 98.2728 142.146 100.093 142.886C101.913 143.626 104.699 144.591 108.467 145.75C108.983 145.943 111.27 146.634 115.328 147.841C119.386 149.047 122.785 151.219 125.506 154.356C128.228 157.509 129.597 161.306 129.597 165.778C129.597 170.122 128.486 173.87 126.279 177.007C124.073 180.16 120.981 182.573 117.035 184.246C113.073 185.935 108.467 186.772 103.201 186.772C97.7252 186.836 92.9581 185.951 88.8674 184.166Z" fill="#0880B7"/>
<path d="M151.387 185.726C151.065 185.501 150.872 185.195 150.808 184.809L131.61 119.624C131.546 119.495 131.514 119.335 131.514 119.141C131.514 118.369 131.965 117.967 132.883 117.967H149.535C150.373 117.967 150.904 118.385 151.097 119.238L160.841 160.292C160.905 160.55 161.002 160.678 161.131 160.678C161.26 160.678 161.356 160.55 161.421 160.292L170.874 119.238C171.068 118.401 171.583 117.967 172.437 117.967H188.703C189.218 117.967 189.588 118.112 189.83 118.401C190.056 118.691 190.104 119.093 189.975 119.624L170.601 184.793C170.536 185.179 170.343 185.485 170.021 185.71C169.699 185.935 169.344 186.048 168.942 186.048H152.466C152.064 186.064 151.709 185.951 151.387 185.726Z" fill="#0880B7"/>
<path d="M231.639 120.445C235.665 122.616 238.773 125.673 240.979 129.582C243.186 133.507 244.297 138.06 244.297 143.256V162.223C244.297 167.934 242.783 172.84 239.772 176.959C236.76 181.077 232.621 183.908 227.355 185.469C227.097 185.533 226.968 185.694 226.968 185.951V193.046C226.968 193.496 226.839 193.85 226.582 194.124C226.324 194.381 225.97 194.51 225.503 194.51H210.122C209.671 194.51 209.317 194.381 209.043 194.124C208.785 193.866 208.657 193.512 208.657 193.046V186.048C208.657 185.791 208.528 185.63 208.27 185.565C202.939 183.941 198.768 181.093 195.756 177.007C192.729 172.921 191.231 167.998 191.231 162.223V143.256C191.231 138.076 192.326 133.507 194.549 129.582C196.755 125.657 199.863 122.616 203.841 120.445C207.835 118.273 212.457 117.179 217.724 117.179C222.99 117.179 227.612 118.273 231.639 120.445ZM209.526 161.74C209.526 164.523 210.267 166.792 211.765 168.545C213.263 170.299 215.244 171.167 217.708 171.167C220.172 171.167 222.169 170.315 223.699 168.593C225.229 166.872 225.986 164.588 225.986 161.74V142.291C225.986 139.443 225.229 137.159 223.699 135.438C222.169 133.716 220.172 132.864 217.708 132.864C215.244 132.864 213.263 133.733 211.765 135.486C210.267 137.24 209.526 139.508 209.526 142.291V161.74Z" fill="#0880B7"/>
</svg>
